<svg xmlns="http://www.w3.org/2000/svg" viewBox="0 0 64 64" fill="none">
  <title>Plombier</title>
  <!-- Clé à molette -->
  <path d="M44 8c-6.627 0-12 5.373-12 12 0 1.64.33 3.2.92 4.62L10 47.46 10.54 54l7.54.54 22.84-22.84A11.96 11.96 0 0044 32c6.627 0 12-5.373 12-12 0-1.86-.425-3.62-1.18-5.19L48 21.58 42.42 16l6.77-6.82A12.04 12.04 0 0044 8z" fill="#007CBA"/>
  <!-- Tuyaux -->
  <rect x="8" y="20" width="20" height="5" rx="2.5" fill="#0056a0"/>
  <rect x="36" y="38" width="20" height="5" rx="2.5" fill="#0056a0"/>
  <circle cx="18" cy="22.5" r="3.5" fill="#F5821F"/>
</svg>
